HIERARCHY
ROOT Hips
{
	OFFSET 0.00000 0.00000 0.00000
	CHANNELS 6 Xposition Yposition Zposition Yrotation Zrotation Xrotation 
	JOINT Lumbar
	{
		OFFSET 0 0 0
		CHANNELS 3 Zrotation Xrotation Yrotation
		JOINT Neck
		{
			OFFSET 0.00 0.2701 0.00
			CHANNELS 3 Zrotation Xrotation Yrotation
			End Site
			{
				OFFSET 0.00 0.1379 0.00
			}
		}
		JOINT RightShoulder
		{
			OFFSET 0.0119 0.2289 0.1181
			CHANNELS 3 Zrotation Xrotation Yrotation
			JOINT RightElbow
			{
				OFFSET 0.00 -0.1475 0.00
				CHANNELS 2 Zrotation Yrotation
				JOINT RightWrist
				{
					OFFSET 0.00 -0.1605 0.00
					CHANNELS 2 Zrotation Xrotation
					End Site
					{
						OFFSET 0.0040 -0.1068 0.0006
					}
				}
			}
		}
		JOINT LeftShoulder
		{
			OFFSET 0.0119 0.2289 -0.1181
			CHANNELS 3 Zrotation Xrotation Yrotation
			JOINT LeftElbow
			{
				OFFSET 0.00 -0.1475 0.00
				CHANNELS 2 Zrotation Yrotation
				JOINT LeftWrist
				{
					OFFSET 0.00 -0.1605 0.00
					CHANNELS 2 Zrotation Xrotation
					End Site
					{
						OFFSET 0.0040 -0.1068 -0.0006
					}
				}
			}
		}
	}
	JOINT RightHip
	{
		OFFSET 0.0316 -0.0424 0.0458
		CHANNELS 3 Zrotation Xrotation Yrotation
		JOINT RightKnee
		{
			OFFSET 0.00 -0.2438 0.00
			CHANNELS 1 Zrotation
			JOINT RightAnkle
			{
				OFFSET 0.00 -0.2449 0.00
				CHANNELS 3 Zrotation Xrotation Yrotation
				End Site
				{
					OFFSET 0.1237 -0.0542 0.0051
				}
			}
		}
	}
	JOINT LeftHip
	{
		OFFSET 0.0316 -0.0424 -0.0458
		CHANNELS 3 Zrotation Xrotation Yrotation
		JOINT LeftKnee
		{
			OFFSET 0.00 -0.2438 0.00
			CHANNELS 1 Zrotation
			JOINT LeftAnkle
			{
				OFFSET 0.00 -0.2449 0.00
				CHANNELS 3 Zrotation Xrotation Yrotation
				End Site
				{
					OFFSET 0.1237 -0.0542 -0.0051
				}
			}
		}
	}
}
MOTION
Frames: 34
Frame Time: 0.02
-0 -1e-05 -4e-05 22.23227 -24.22988 -6.70109 42.74348 2.95665 -4.26146 -12.06418 -1.88502 -0.40605 90.17049 -96.63086 64.17277 5.32623 104.37288 11.90967 2.48877 59.22502 98.55526 -64.17298 7.47822 -92.91056 12.62995 1.00796 39.28621 -3.76958 0.01664 -22.63422 -7.09111 -4.13139 -2.85515 42.68861 9.82375 0.1568 -27.74762 -6.71908 3.58542 2.52179
3e-05 -0 -4e-05 22.23091 -24.23623 -6.70209 42.75127 2.95251 -4.25701 -12.06284 -1.88772 -0.40631 89.96936 -96.63644 64.17246 5.3267 104.30431 11.91432 2.46401 59.46712 98.53283 -64.17262 7.44249 -92.94707 12.66951 0.98719 39.28756 -3.82679 -0.28644 -22.63404 -7.07661 -4.10088 -2.8331 42.69295 9.82076 0.132 -27.74751 -6.7203 3.58925 2.52408
7e-05 0 -3e-05 22.22955 -24.24256 -6.70309 42.75905 2.94839 -4.25257 -12.06151 -1.89042 -0.40657 89.76858 -96.64203 64.17214 5.32718 104.23585 11.91894 2.43929 59.70864 98.51046 -64.17225 7.40684 -92.9835 12.70897 0.96647 39.28889 -3.88384 -0.58866 -22.63387 -7.06214 -4.07045 -2.8111 42.69727 9.81778 0.10729 -27.7474 -6.72151 3.59308 2.52636
0.00011 1e-05 -2e-05 22.22819 -24.24888 -6.70408 42.76682 2.94427 -4.24813 -12.06018 -1.89311 -0.40683 89.56803 -96.6476 64.17182 5.32766 104.16747 11.92357 2.4146 59.95002 98.4881 -64.17189 7.37121 -93.01991 12.74841 0.94576 39.29023 -3.94087 -0.89083 -22.63369 -7.04768 -4.04003 -2.78912 42.7016 9.8148 0.08258 -27.74729 -6.72272 3.5969 2.52865
0.00015 1e-05 -1e-05 22.22683 -24.25523 -6.70508 42.77461 2.94015 -4.24369 -12.05884 -1.89581 -0.40708 89.36725 -96.65317 64.17151 5.32814 104.09902 11.92822 2.38987 60.19189 98.46567 -64.17153 7.33551 -93.05639 12.78794 0.92501 39.29158 -3.99807 -1.19381 -22.63351 -7.03319 -4.00954 -2.76708 42.70595 9.8118 0.05777 -27.74718 -6.72393 3.60072 2.53093
0.00019 2e-05 -1e-05 22.22548 -24.26151 -6.70607 42.78234 2.93603 -4.23925 -12.05753 -1.8985 -0.40734 89.16649 -96.65878 64.17119 5.32861 104.03053 11.9328 2.36516 60.43266 98.44343 -64.17117 7.29998 -93.09272 12.82724 0.90434 39.29287 -4.0548 -1.49441 -22.63333 -7.01878 -3.97921 -2.74519 42.71022 9.80886 0.03326 -27.74707 -6.72514 3.60455 2.53321
0.00023 3e-05 0 22.2241 -24.26793 -6.70707 42.79018 2.9319 -4.23482 -12.05617 -1.9012 -0.4076 88.96589 -96.6643 64.17087 5.32909 103.9622 11.93752 2.34045 60.6754 98.42083 -64.17081 7.26414 -93.12931 12.86696 0.88353 39.29428 -4.1124 -1.79948 -22.63317 -7.00422 -3.9486 -2.72302 42.71465 9.80582 0.0082 -27.74696 -6.72635 3.60836 2.5355
0.00026 3e-05 1e-05 22.22275 -24.27422 -6.70807 42.79793 2.92778 -4.23037 -12.05485 -1.90389 -0.40785 88.76516 -96.6699 64.17056 5.32957 103.89374 11.9421 2.31574 60.91627 98.39857 -64.17045 7.22859 -93.16565 12.90628 0.86286 39.29559 -4.16921 -2.10045 -22.63299 -6.9898 -3.91825 -2.70111 42.71894 9.80286 -0.01639 -27.74685 -6.72755 3.61219 2.53778
0.0003 4e-05 2e-05 22.22143 -24.28034 -6.70905 42.80555 2.92369 -4.22591 -12.0536 -1.90659 -0.4081 88.56407 -96.67561 64.17025 5.33003 103.82498 11.94653 2.29102 61.1552 98.37671 -64.17009 7.19336 -93.20175 12.94517 0.84231 39.29673 -4.22505 -2.39646 -22.63279 -6.97555 -3.8882 -2.67952 42.72301 9.80005 -0.04025 -27.74673 -6.72876 3.61603 2.54005
0.00034 4e-05 3e-05 22.21994 -24.28738 -6.7101 42.81383 2.91946 -4.22155 -12.052 -1.90928 -0.40838 88.36446 -96.68071 64.1699 5.33054 103.75751 11.95188 2.26632 61.40636 98.35247 -64.1697 7.15618 -93.23946 12.98672 0.82092 39.29873 -4.28646 -2.72115 -22.63268 -6.96031 -3.85634 -2.65608 42.72821 9.79651 -0.06784 -27.74666 -6.72998 3.6198 2.54239
0.00038 5e-05 3e-05 22.2188 -24.29253 -6.711 42.82078 2.91553 -4.21698 -12.05111 -1.91198 -0.4086 88.16213 -96.6871 64.16964 5.33097 103.68764 11.95528 2.24159 61.63097 98.33333 -64.1694 7.1232 -93.2736 13.02255 0.80138 39.29896 -4.33611 -2.98521 -22.6324 -6.94718 -3.82838 -2.63656 42.73109 9.79442 -0.08789 -27.74649 -6.73118 3.62371 2.54457
0.00042 5e-05 3e-05 22.21861 -24.29203 -6.71146 42.82357 2.91231 -4.2118 -12.0524 -1.91471 -0.40864 87.94905 -96.69714 64.16958 5.33116 103.60844 11.95329 2.2168 61.78841 98.32772 -64.16934 7.101 -93.29925 13.0434 0.78643 39.29401 -4.35326 -3.08241 -22.63165 -6.93969 -3.81065 -2.62755 42.72727 9.79715 -0.08418 -27.74599 -6.73239 3.62816 2.54632
0.00045 6e-05 2e-05 22.21879 -24.28971 -6.71177 42.82511 2.90941 -4.20642 -12.05436 -1.91743 -0.40862 87.73407 -96.70845 64.16961 5.33128 103.52736 11.94935 2.19201 61.91813 98.32731 -64.16937 7.08314 -93.32112 13.05837 0.77343 39.28735 -4.35866 -3.11886 -22.63074 -6.93435 -3.79693 -2.62249 42.72119 9.80119 -0.07339 -27.74538 -6.73358 3.63274 2.54789
0.00049 6e-05 1e-05 22.21882 -24.28851 -6.71214 42.82755 2.90644 -4.20119 -12.05586 -1.92015 -0.40863 87.52185 -96.71912 64.1696 5.33143 103.44893 11.94629 2.16715 62.05681 98.32487 -64.16935 7.06377 -93.34384 13.07556 0.75983 39.2817 -4.36958 -3.18337 -22.62993 -6.92815 -3.7817 -2.61578 42.71639 9.80403 -0.06791 -27.74483 -6.73476 3.63717 2.54952
0.00052 6e-05 0 22.21874 -24.28606 -6.71253 42.82862 2.90312 -4.19573 -12.05805 -1.92293 -0.40862 87.30073 -96.73011 64.16959 5.33158 103.36285 11.94318 2.14243 62.21077 98.32112 -64.16935 7.04245 -93.37008 13.09461 0.74498 39.27507 -4.3797 -3.24568 -22.62902 -6.92147 -3.76519 -2.60851 42.71056 9.80934 -0.05387 -27.74423 -6.73604 3.64198 2.55122
0.00056 7e-05 -1e-05 22.21899 -24.28578 -6.71286 42.83221 2.90062 -4.19069 -12.05893 -1.92555 -0.40863 87.09879 -96.74067 64.1696 5.33171 103.29234 11.93978 2.11764 62.32636 98.32123 -64.16935 7.02621 -93.38825 13.10842 0.73325 39.27005 -4.38873 -3.29839 -22.62828 -6.91629 -3.75225 -2.6033 42.7063 9.80992 -0.05562 -27.74372 -6.73711 3.64603 2.55275
0.00059 7e-05 -3e-05 22.22009 -24.29209 -6.71303 42.8433 2.90033 -4.18684 -12.05622 -1.92789 -0.4087 86.9411 -96.7504 64.16959 5.33186 103.26449 11.93565 2.09085 62.34272 98.33144 -64.16935 7.023 -93.38386 13.10907 0.72927 39.27022 -4.39725 -3.33763 -22.62807 -6.91485 -3.74857 -2.60319 42.70721 9.79631 -0.1058 -27.74345 -6.73763 3.64788 2.55387
0.00063 8e-05 -6e-05 22.22151 -24.30062 -6.71314 42.85694 2.90086 -4.18344 -12.05211 -1.93003 -0.40878 86.80465 -96.75954 64.16959 5.332 103.25251 11.93135 2.06435 62.32157 98.3452 -64.16935 7.02474 -93.37171 13.10468 0.72843 39.27201 -4.40511 -3.36955 -22.62802 -6.91481 -3.74827 -2.60497 42.70973 9.77803 -0.17157 -27.74328 -6.73795 3.64897 2.55484
0.00067 9e-05 -8e-05 22.22276 -24.30803 -6.7133 42.86927 2.90103 -4.17986 -12.04852 -1.93217 -0.40885 86.66427 -96.76854 64.16959 5.33214 103.23376 11.92739 2.03888 62.31745 98.35691 -64.16935 7.02419 -93.3639 13.10267 0.72644 39.27285 -4.41354 -3.40619 -22.62788 -6.91403 -3.74617 -2.60563 42.71135 9.76243 -0.22814 -27.74306 -6.73838 3.65043 2.55589
0.0007 0.0001 -0.00011 22.22412 -24.31582 -6.71338 42.88214 2.90119 -4.17614 -12.04549 -1.93472 -0.40893 86.49898 -96.77935 64.16958 5.33231 103.21304 11.92227 2.00844 62.31184 98.37074 -64.16932 7.02399 -93.35251 13.10005 0.72345 39.27452 -4.42054 -3.43534 -22.62783 -6.91379 -3.74532 -2.60746 42.71361 9.74458 -0.29325 -27.74285 -6.73876 3.65177 2.55687
0.00074 0.00011 -0.00014 22.22534 -24.32338 -6.7136 42.89455 2.90153 -4.17285 -12.04091 -1.93636 -0.40901 86.3915 -96.78618 64.16958 5.33241 103.20027 11.91953 1.98852 62.30152 98.38079 -64.16937 7.02413 -93.34679 13.09759 0.72315 39.27489 -4.43038 -3.47852 -22.62764 -6.91273 -3.74265 -2.6073 42.71494 9.73022 -0.34456 -27.74263 -6.73918 3.6532 2.55798
0.0008 0.00011 -0.00017 22.22601 -24.32956 -6.71433 42.90467 2.90239 -4.17028 -12.03263 -1.93565 -0.40907 86.43155 -96.78282 64.16958 5.33232 103.2048 11.92354 1.99653 62.28163 98.38064 -64.16969 7.02455 -93.35873 13.09679 0.73031 39.27111 -4.44935 -3.56799 -22.62696 -6.90891 -3.73362 -2.60071 42.71329 9.72715 -0.35216 -27.74241 -6.73976 3.65483 2.5594
0.00087 0.00012 -0.00021 22.22652 -24.33548 -6.71521 42.91432 2.90335 -4.16817 -12.02278 -1.93401 -0.40914 86.53053 -96.77538 64.16959 5.33218 103.21685 11.92986 2.01528 62.25974 98.37635 -64.17009 7.02512 -93.37667 13.09631 0.73991 39.26599 -4.47104 -3.67108 -22.62613 -6.90425 -3.72271 -2.59211 42.71066 9.72767 -0.34564 -27.74218 -6.74038 3.65661 2.56098
0.00094 0.00013 -0.00025 22.22715 -24.34166 -6.71595 42.92444 2.90411 -4.16607 -12.01349 -1.93276 -0.40921 86.60684 -96.76939 64.16959 5.33205 103.22604 11.93512 2.02982 62.24236 98.37319 -64.17043 7.02514 -93.3918 13.0958 0.74789 39.26159 -4.49083 -3.76449 -22.62541 -6.90008 -3.71295 -2.58471 42.7085 9.72617 -0.34684 -27.74192 -6.74099 3.65847 2.56256
0.001 0.00014 -0.00029 22.22763 -24.3473 -6.71694 42.93353 2.90555 -4.1631 -12.00483 -1.93171 -0.40926 86.66577 -96.76508 64.16959 5.33194 103.23372 11.94069 2.04163 62.20744 98.37326 -64.17083 7.027 -93.40692 13.09482 0.75816 39.25679 -4.51344 -3.87235 -22.62457 -6.89549 -3.70205 -2.57615 42.70627 9.72604 -0.34328 -27.74178 -6.74156 3.65969 2.56387
0.00107 0.00015 -0.00033 22.22833 -24.35398 -6.7175 42.94463 2.9056 -4.16201 -11.99448 -1.92993 -0.40935 86.77559 -96.75634 64.16959 5.33183 103.24573 11.9458 2.06158 62.21034 98.36566 -64.17115 7.02546 -93.42371 13.0947 0.76415 39.25248 -4.53076 -3.95343 -22.62391 -6.89156 -3.69304 -2.56952 42.70395 9.72409 -0.34582 -27.74141 -6.74221 3.66226 2.56574
0.00116 0.00016 -0.00037 22.23025 -24.36343 -6.71645 42.96144 2.90173 -4.16644 -11.97985 -1.92734 -0.40956 87.00239 -96.73593 64.16959 5.33154 103.26883 11.95212 2.10217 62.30819 98.3371 -64.1712 7.01077 -93.44251 13.09909 0.75818 39.24969 -4.53335 -3.9576 -22.6239 -6.8897 -3.68959 -2.56868 42.70146 9.71516 -0.37118 -27.74018 -6.74327 3.66887 2.56934
0.00126 0.00018 -0.0004 22.2323 -24.37394 -6.71502 42.98024 2.89646 -4.17267 -11.96358 -1.92391 -0.40981 87.27949 -96.71126 64.1696 5.33146 103.29419 11.95723 2.15044 62.44666 98.30113 -64.17117 6.99353 -93.46303 13.10392 0.74774 39.24743 -4.53046 -3.93447 -22.62407 -6.88853 -3.6881 -2.56984 42.69892 9.70444 -0.40276 -27.73873 -6.74439 3.67679 2.57345
0.00135 0.00019 -0.00044 22.2339 -24.38407 -6.71402 42.99812 2.89188 -4.17775 -11.94801 -1.9202 -0.41003 87.54004 -96.6889 64.16962 5.33115 103.31975 11.96105 2.19463 62.57269 98.26903 -64.17118 6.97962 -93.48354 13.10716 0.739 39.245 -4.52966 -3.92346 -22.62406 -6.887 -3.68577 -2.57011 42.69647 9.69533 -0.4296 -27.73751 -6.74538 3.68387 2.57717
0.00145 0.0002 -0.00048 22.23711 -24.39382 -6.71197 43.01619 2.88712 -4.18418 -11.93248 -1.91916 -0.41028 87.77799 -96.66501 64.16959 5.33061 103.34679 11.97315 2.2416 62.67138 98.23455 -64.17118 6.95574 -93.501 13.11641 0.73166 39.24226 -4.53044 -3.91352 -22.62441 -6.88563 -3.68319 -2.57026 42.69371 9.68317 -0.46351 -27.73578 -6.7468 3.69193 2.58154
0.00154 0.00021 -0.00052 22.23703 -24.40456 -6.71196 43.03419 2.88235 -4.18829 -11.91664 -1.91248 -0.41049 88.07171 -96.64313 64.16964 5.33158 103.36316 11.96715 2.28458 62.83898 98.20347 -64.17117 6.95303 -93.52513 13.11305 0.72041 39.24026 -4.52683 -3.89546 -22.6241 -6.88411 -3.68161 -2.57114 42.69157 9.67667 -0.48501 -27.73504 -6.74735 3.69832 2.58471
0.00164 0.00022 -0.00054 22.22736 -24.41821 -6.71811 43.0527 2.87824 -4.18498 -11.89925 -1.88941 -0.41061 88.52578 -96.6295 64.16992 5.32909 103.42 11.91604 2.31271 63.16742 98.1823 -64.17111 7.00151 -93.56758 13.0761 0.69887 39.2405 -4.5104 -3.85476 -22.62163 -6.88194 -3.68236 -2.57373 42.69147 9.68835 -0.46475 -27.73712 -6.74535 3.69943 2.58409
0.00174 0.00024 -0.00057 22.2144 -24.43274 -6.72623 43.07088 2.8741 -4.17935 -11.88188 -1.86087 -0.41071 89.02885 -96.61768 64.17026 5.32994 103.45412 11.84577 2.33616 63.56733 98.16513 -64.17104 7.07332 -93.61668 13.02603 0.67379 39.24139 -4.49009 -3.80795 -22.61856 -6.87959 -3.68405 -2.57696 42.69193 9.70546 -0.43265 -27.74021 -6.74249 3.69888 2.58229
0.00184 0.00025 -0.0006 22.20327 -24.4466 -6.73315 43.08839 2.86976 -4.17516 -11.86513 -1.83551 -0.41081 89.49896 -96.6041 64.17055 5.33369 103.45073 11.78145 2.36385 63.9475 98.14691 -64.17097 7.13905 -93.66239 12.98126 0.65053 39.24178 -4.4729 -3.76853 -22.61599 -6.87736 -3.68532 -2.5798 42.69196 9.71859 -0.4104 -27.74284 -6.74014 3.69936 2.58129
